<?xml version="1.0" encoding="iso-8859-1"?>
<!-- Generator: Adobe Illustrator 19.0.0, SVG Export Plug-In . SVG Version: 6.00 Build 0)  -->
<svg version="1.1" id="Layer_1" xmlns="http://www.w3.org/2000/svg" xmlns:xlink="http://www.w3.org/1999/xlink" x="0px" y="0px"
	 viewBox="0 0 512 512" style="enable-background:new 0 0 512 512;" xml:space="preserve">
<g>
	<g>
		<path d="M469.205,257.741c-5.989-5.667-12.573-11.053-19.614-16.076c7.245-18.562,10.928-38.165,10.928-58.375
			c0-45.487-18.983-88.292-52.314-118.598c1.487-2.852,2.087-6.083,1.701-9.359c-0.507-4.311-2.66-8.141-6.059-10.783
			c-6.876-5.351-14.542-10.264-22.784-14.604C331.621,3.917,272.585,3.916,223.146,29.947c-8.244,4.339-15.91,9.253-22.784,14.602
			c-3.4,2.645-5.552,6.474-6.059,10.784c-0.386,3.276,0.214,6.506,1.699,9.355c-16.277,14.838-29.501,33.078-38.453,53.168
			c-1.762,3.953,0.016,8.587,3.969,10.348c1.037,0.462,2.119,0.68,3.186,0.68c2.999,0,5.862-1.732,7.162-4.649
			c7.898-17.725,19.477-33.862,33.722-47.085l5.587,6.975c-27.424,25.549-43.008,61.265-43.008,99.165
			c0,14.48,2.252,28.648,6.687,42.218c-2.677,1.368-5.304,2.794-7.897,4.253c-5.04-14.896-7.599-30.486-7.599-46.472
			c0-8.43,0.727-16.891,2.163-25.146c0.741-4.263-2.115-8.322-6.379-9.062c-4.262-0.749-8.322,2.114-9.062,6.378
			c-1.589,9.139-2.395,18.502-2.395,27.83c0,18.901,3.232,37.313,9.595,54.831c-27.086,18.037-46.776,40.375-57.729,65.395
			c-4.212-6.473-7.605-14.45-10.125-23.864c-5.63-21.034-15.302-38.725-28.747-52.582c-1.476-1.521-3.505-2.379-5.625-2.379H7.838
			c-3.491,0-6.561,2.309-7.529,5.664c-0.969,3.354,0.4,6.943,3.354,8.804c26.909,16.942,39.386,53.719,38.147,112.436
			c-1.551,73.525,35.07,82.946,62.738,89.005c8.659,13.471,20.548,24.327,36.252,33.114c1.211,0.677,2.523,0.999,3.819,0.999
			c2.745,0,5.41-1.445,6.846-4.011c2.113-3.776,0.765-8.552-3.012-10.665c-14.363-8.036-24.912-17.976-32.259-30.399
			c-13.623-22.95-14.763-52.228-14.763-80.251c0-9.518,1.435-19.026,4.264-28.256c8.561-27.934,30.341-53.94,61.326-73.224
			c6.596-4.105,13.629-7.93,20.89-11.36c6.218-2.928,12.69-5.601,19.278-8.002c2.879,1.801,6.267,2.86,9.906,2.86h170.023
			c2.552,0,4.984-0.516,7.203-1.444c7.143,2.742,14.107,5.797,20.729,9.148c7.201,3.631,14.115,7.646,20.554,11.94
			c8.325,5.539,16.006,11.622,22.832,18.081c1.514,1.434,3.451,2.144,5.384,2.144c2.077,0,4.152-0.821,5.694-2.451
			C472.487,265.676,472.349,260.717,469.205,257.741z M57.479,351.925c0.732-34.644-3.015-61.877-11.452-83.254
			c-4.39-11.12-9.986-20.503-16.916-28.308h18.546c10.416,11.559,18.021,26.122,22.629,43.341
			c4.182,15.617,10.61,28.172,19.132,37.411c-2.425,9.277-3.662,18.763-3.662,28.272c0,24.507,0.863,49.994,9.547,72.815
			C73.799,415.918,56.399,403.073,57.479,351.925z M209.973,57.556c-0.108-0.135-0.115-0.286-0.103-0.391
			c0.02-0.171,0.092-0.227,0.116-0.247c6.149-4.784,13.034-9.193,20.462-13.104c22.437-11.814,47.042-17.717,71.657-17.717
			c24.608,0,49.224,5.907,71.656,17.716c7.426,3.911,14.311,8.32,20.463,13.107c0.023,0.019,0.096,0.074,0.115,0.243
			c0.013,0.104,0.004,0.256-0.103,0.391c-0.001,0-0.001,0-0.001,0.001l-18.019,22.496c-0.003,0.004-0.006,0.007-0.009,0.01
			c-0.006,0.008-0.012,0.017-0.018,0.024l-3.025,3.776c-0.089,0.112-0.202,0.136-0.323,0.064
			c-13.545-8.309-40.745-22.248-70.735-22.248c-29.99,0-57.189,13.939-70.735,22.248c-0.117,0.072-0.234,0.049-0.323-0.063
			l-3.001-3.746c-0.018-0.022-0.032-0.045-0.05-0.067c-0.008-0.01-0.019-0.019-0.027-0.029L209.973,57.556z M390.188,212.656
			c0,1.694-1.378,3.072-3.072,3.072H217.093c-1.694,0-3.072-1.378-3.072-3.072v-5.972c0-1.694,1.378-3.071,3.072-3.071h0.939
			h168.144h0.939c1.694,0,3.072,1.377,3.072,3.071V212.656z M298.822,178.631c21.487,0,39.811,4.352,53.71,9.308H247.514
			C259.949,183.009,277.103,178.631,298.822,178.631z M288.013,148.546c0-7.946,6.322-14.412,14.09-14.412
			c7.771,0,14.091,6.465,14.091,14.412c0.001,7.948-6.321,14.412-14.091,14.412C294.334,162.958,288.013,156.493,288.013,148.546z
			 M414.221,221.332c-2.955-1.357-5.958-2.658-9-3.908c0.402-1.526,0.638-3.119,0.638-4.769v-5.972
			c0-9.798-7.561-17.851-17.152-18.664c-6.706-4.395-28.931-17.538-61.831-22.822c3.15-4.772,4.99-10.498,4.99-16.653
			c0-16.59-13.353-30.086-29.765-30.086c-16.412,0-29.764,13.496-29.764,30.086c0,5.812,1.644,11.24,4.477,15.845
			c-34.218,4.509-55.029,18.494-61.702,23.655c-9.41,0.992-16.769,8.97-16.769,18.638v5.972c0,0.81,0.069,1.603,0.169,2.387
			c-3.151,1.2-6.268,2.463-9.349,3.779c-3.538-11.444-5.328-23.361-5.328-35.533c0.002-33.26,13.57-64.611,37.463-87.162
			c5.141,4.11,12.459,4.722,18.265,1.158c9.771-5.992,35.422-19.933,62.538-19.933c27.117,0,52.769,13.941,62.538,19.933
			c2.576,1.581,5.449,2.342,8.299,2.342c3.573,0,7.104-1.204,9.963-3.488c23.891,22.542,37.456,53.889,37.456,87.151
			C420.36,196.353,418.296,209.113,414.221,221.332z M436.156,232.88c-2.552-1.533-5.14-3.033-7.786-4.476
			c5.087-14.457,7.666-29.6,7.666-45.115c0-37.903-15.584-73.616-43.008-99.156l5.593-6.982
			c29.47,27.284,46.223,65.529,46.223,106.138C444.845,200.419,441.919,217.055,436.156,232.88z"/>
	</g>
</g>
<g>
	<g>
		<path d="M494.419,288.618c-2.248-3.698-7.067-4.872-10.768-2.625c-3.698,2.248-4.873,7.069-2.625,10.767
			c10.151,16.7,15.299,34.406,15.299,52.627c0,42.558-4.849,73.525-28.984,96.382c-28.516,27.005-83.622,40.132-168.465,40.132
			c-50.678,0-89.88-4.354-119.849-13.311c-4.142-1.241-8.513,1.117-9.752,5.264c-1.24,4.147,1.117,8.513,5.264,9.752
			c31.446,9.399,72.116,13.968,124.337,13.968c90.281,0,147.237-14.117,179.243-44.427C509.381,427.545,512,386.002,512,349.388
			C512,328.253,506.085,307.807,494.419,288.618z"/>
	</g>
</g>
<g>
</g>
<g>
</g>
<g>
</g>
<g>
</g>
<g>
</g>
<g>
</g>
<g>
</g>
<g>
</g>
<g>
</g>
<g>
</g>
<g>
</g>
<g>
</g>
<g>
</g>
<g>
</g>
<g>
</g>
</svg>
